if (_typeface_js && _typeface_js.loadFace) _typeface_js.loadFace({"glyphs":{"0":{"ha":667,"x_min":52,"x_max":615,"o":"m 318 975 l 328 972 l 328 964 q 283 903 283 946 l 283 353 q 173 269 283 325 q 97 231 123 231 l 90 231 q 52 277 56 231 l 52 785 q 149 884 52 842 q 318 975 277 972 m 366 953 q 566 827 421 926 l 566 823 q 346 698 536 823 l 311 679 l 308 683 l 308 873 q 363 949 313 949 l 366 953 m 570 793 q 615 740 611 793 l 615 250 q 508 132 615 174 q 342 48 394 48 l 338 48 l 338 52 q 384 124 384 81 l 384 671 q 460 732 384 696 q 570 793 532 783 m 353 341 l 356 337 l 356 124 q 300 67 356 90 q 100 193 149 155 l 100 197 q 353 341 123 197 z "},"1":{"ha":336,"x_min":52,"x_max":283,"o":"m 239 979 q 283 930 283 972 l 283 227 q 208 132 283 162 l 83 56 q 52 121 52 62 l 52 808 q 176 949 52 899 q 239 979 206 970 z "},"2":{"ha":684,"x_min":52,"x_max":632,"o":"m 342 991 l 346 991 q 612 835 372 991 l 622 812 q 435 668 622 761 l 128 850 l 111 850 l 111 854 q 342 991 314 991 m 100 827 q 242 755 114 827 l 242 751 q 80 641 106 641 q 52 702 52 646 l 52 751 q 100 827 52 827 m 622 751 l 632 751 l 632 515 q 532 410 632 447 q 315 280 329 280 l 311 280 l 311 463 q 370 588 311 564 q 622 747 593 722 l 622 751 m 297 557 q 283 439 283 540 l 283 136 l 290 67 q 56 235 56 179 l 52 277 l 52 379 q 128 481 52 454 q 297 557 281 557 m 308 239 l 315 239 q 625 94 621 113 l 629 79 q 570 45 618 45 l 380 45 q 308 140 308 45 l 308 239 z "},"3":{"ha":684,"x_min":52,"x_max":632,"o":"m 267 998 q 380 930 287 998 l 384 915 q 332 858 384 888 q 239 812 258 812 l 111 812 q 77 831 84 812 l 77 842 q 187 945 77 871 q 267 998 250 998 m 414 915 q 608 785 596 809 l 612 770 q 505 668 612 723 q 304 519 304 537 l 300 500 q 107 656 107 633 q 270 785 107 700 q 411 899 411 867 l 414 915 m 515 630 q 632 515 632 600 l 632 288 l 625 280 q 477 382 624 300 q 332 481 335 474 l 328 496 q 508 630 328 538 l 515 630 m 80 391 q 232 284 101 391 q 90 212 117 212 q 52 261 52 212 l 52 349 q 80 391 54 391 m 435 372 q 618 227 618 278 q 418 86 618 197 q 346 48 372 48 l 338 48 q 111 182 316 48 l 111 189 l 121 189 l 432 372 l 435 372 z "},"4":{"ha":702,"x_min":52,"x_max":650,"o":"m 315 987 l 518 987 l 518 975 q 397 766 484 947 l 290 576 l 125 576 q 59 626 59 576 q 252 975 218 939 q 315 987 289 987 m 563 968 q 650 846 588 968 q 608 816 644 816 l 467 816 l 460 823 q 563 968 522 968 m 52 573 q 107 546 83 546 l 304 546 q 366 470 366 546 l 366 273 l 356 261 l 273 261 l 224 258 q 128 394 174 258 q 52 573 52 557 m 387 554 l 391 554 q 618 401 608 425 l 625 353 l 625 117 q 559 45 625 45 l 460 45 q 394 102 394 45 l 394 515 l 387 554 z "},"5":{"ha":684,"x_min":52,"x_max":632,"o":"m 356 991 q 563 854 372 991 l 566 842 q 511 812 566 812 l 318 812 l 308 823 l 308 907 q 356 991 311 991 m 283 972 l 290 972 l 283 937 l 283 557 q 300 474 283 496 l 294 467 l 111 467 q 52 527 52 467 l 52 774 q 159 892 52 850 l 283 972 m 359 736 q 625 565 583 610 l 632 519 l 632 284 l 622 284 q 387 439 622 302 q 311 562 311 472 l 311 664 q 359 736 315 736 m 80 391 q 232 284 103 391 q 90 212 119 212 q 52 265 58 212 l 52 334 q 80 391 52 391 m 435 375 q 618 235 618 272 l 618 227 q 501 136 618 197 q 342 48 372 48 q 111 185 311 48 l 111 189 l 118 189 q 411 360 139 189 l 435 375 z "},"6":{"ha":684,"x_min":52,"x_max":632,"o":"m 353 991 q 559 854 374 991 l 563 839 l 563 835 q 511 812 563 816 l 318 812 l 308 823 l 308 911 q 353 991 313 991 m 283 972 l 290 972 l 283 937 l 283 334 q 208 273 283 309 q 97 212 135 222 q 52 273 52 212 l 52 785 q 194 915 52 846 l 283 972 m 359 736 q 629 554 629 583 l 632 519 l 632 284 l 622 284 q 391 436 621 303 q 311 500 311 483 l 311 664 q 359 736 311 736 m 435 372 q 615 250 563 305 l 618 227 q 477 121 618 197 q 342 48 372 48 q 138 166 313 48 q 111 185 111 176 l 111 189 l 118 189 q 342 318 138 189 q 435 372 424 372 z "},"7":{"ha":694,"x_min":52,"x_max":642,"o":"m 353 991 q 587 854 383 991 q 277 671 562 854 l 242 660 q 52 793 52 757 l 52 801 q 245 937 61 827 q 353 991 334 991 m 601 827 q 642 778 637 827 l 642 223 q 553 121 642 157 q 442 56 454 56 l 432 56 q 411 121 411 71 l 411 702 q 498 770 411 730 q 601 827 557 816 z "},"8":{"ha":660,"x_min":52,"x_max":608,"o":"m 304 979 q 342 915 338 979 l 342 747 q 325 721 342 728 l 318 721 q 125 858 125 811 q 232 941 125 888 q 304 979 280 979 m 359 972 l 363 972 q 570 827 570 855 l 577 778 l 577 766 q 463 633 577 713 q 363 709 363 682 l 363 934 l 359 972 m 118 816 q 446 611 127 796 q 604 486 604 529 l 608 458 l 608 246 l 597 246 q 366 391 595 261 l 125 538 q 111 584 111 565 l 111 808 l 118 816 m 159 481 q 311 379 311 404 l 311 121 l 318 60 q 59 227 85 199 l 52 273 l 52 334 q 104 425 52 382 q 159 481 143 473 m 411 334 q 591 204 591 242 l 594 185 q 442 75 594 163 q 384 45 404 45 q 332 128 342 45 l 332 269 q 411 334 332 296 z "},"9":{"ha":684,"x_min":52,"x_max":632,"o":"m 349 991 q 574 854 386 981 l 574 850 q 332 713 543 850 l 249 664 q 66 804 66 767 l 66 820 q 197 911 71 842 q 349 991 309 991 m 587 827 q 632 774 628 827 l 632 265 q 539 155 632 191 q 394 67 408 67 l 401 102 l 401 706 q 467 759 401 731 q 587 827 563 825 m 52 755 l 62 755 q 218 649 62 737 q 373 543 373 554 l 373 375 q 328 303 373 303 q 66 467 131 410 q 52 519 52 484 l 52 755 m 277 227 l 356 227 q 376 204 376 227 l 376 136 q 328 48 376 48 q 121 185 313 48 l 121 204 l 138 223 l 277 227 z "}," ":{"ha":386,"x_min":0,"x_max":0,"o":""}," ":{"ha":386,"x_min":0,"x_max":0,"o":""},",":{"ha":391,"x_min":52,"x_max":338,"o":"m 173 307 q 338 166 338 216 l 338 162 q 194 7 338 130 q 80 -73 117 -73 q 52 -35 52 -62 l 52 166 q 135 280 52 236 q 173 307 165 307 z "},"-":{"ha":397,"x_min":22,"x_max":374,"o":"m 29 579 l 368 579 l 374 572 l 374 471 l 368 465 l 29 465 l 22 471 l 22 572 l 29 579 z "},"­":{"ha":397,"x_min":22,"x_max":374,"o":"m 29 579 l 368 579 l 374 572 l 374 471 l 368 465 l 29 465 l 22 471 l 22 572 l 29 579 z "},".":{"ha":481,"x_min":52,"x_max":429,"o":"m 232 307 q 425 185 244 307 l 429 182 l 429 166 q 235 41 391 129 l 229 41 q 56 143 199 41 l 52 162 l 52 170 q 229 303 52 210 l 232 307 z "},"A":{"ha":677,"x_min":52,"x_max":625,"o":"m 328 1089 q 363 1021 363 1080 l 363 827 l 356 819 q 115 956 151 949 l 115 960 q 328 1089 304 1089 m 384 1078 l 387 1078 q 612 933 570 972 q 625 865 625 906 l 625 526 l 622 500 l 442 606 q 391 656 391 632 l 391 1043 l 384 1078 m 97 929 q 283 823 130 929 l 283 656 q 204 595 283 629 q 73 519 90 519 q 52 557 55 519 l 52 865 q 97 929 52 929 m 318 625 q 363 549 356 625 l 363 390 q 304 345 351 345 q 66 492 117 443 l 66 496 l 69 492 l 80 492 q 294 614 105 492 l 318 625 m 387 606 q 615 458 613 481 q 625 397 625 433 l 625 135 q 587 40 625 40 q 401 162 455 99 q 391 215 391 191 l 391 572 l 384 606 l 387 606 m 59 458 q 287 314 281 324 l 287 230 q 176 90 287 130 q 80 40 112 40 q 52 101 52 50 l 52 450 l 59 458 z "},"B":{"ha":684,"x_min":52,"x_max":632,"o":"m 325 1085 q 536 964 350 1085 q 543 945 536 945 q 397 834 543 913 l 342 800 q 100 941 115 941 q 87 948 87 941 q 325 1085 302 1085 m 80 918 q 262 808 104 918 q 287 705 287 786 l 287 326 q 214 268 287 302 q 94 203 123 203 q 52 253 57 203 l 52 872 q 80 918 52 910 m 559 910 l 570 910 l 570 652 q 546 587 570 605 l 539 587 q 335 724 354 698 l 328 743 q 480 850 328 766 q 559 910 559 895 m 311 701 l 315 701 q 604 523 336 672 q 632 454 632 498 l 632 219 l 625 211 l 622 211 q 463 317 622 239 q 315 435 315 397 l 311 466 l 311 701 m 384 326 q 591 196 591 218 l 594 184 q 484 105 593 161 q 353 37 381 37 q 115 173 327 37 l 115 177 q 380 326 132 177 l 384 326 z "},"C":{"ha":688,"x_min":52,"x_max":635,"o":"m 353 1089 q 587 933 587 953 l 591 922 q 391 796 591 899 q 311 850 311 819 l 311 986 q 353 1089 311 1089 m 290 1078 l 290 1074 l 287 1040 l 287 326 q 208 264 287 300 q 94 203 124 203 q 52 264 52 203 l 52 876 q 135 983 52 953 l 290 1078 m 442 359 q 635 230 635 258 q 446 90 635 195 q 346 37 370 37 q 111 173 322 37 l 111 177 q 363 321 146 182 q 442 359 416 359 z "},"D":{"ha":684,"x_min":52,"x_max":632,"o":"m 346 1097 q 570 960 375 1090 l 570 956 q 338 823 542 956 l 311 812 l 308 812 l 308 1024 q 346 1097 308 1097 m 290 1074 l 283 1028 l 283 230 q 170 127 283 180 q 94 90 117 90 q 52 139 57 90 l 52 891 q 156 994 52 947 q 290 1074 278 1074 m 594 929 q 632 842 632 929 l 632 272 q 570 162 632 189 l 391 56 l 391 59 l 397 90 l 397 808 q 477 872 397 833 q 594 929 555 929 m 366 203 l 370 200 l 370 105 q 328 48 364 48 q 245 109 284 65 l 245 124 q 366 203 263 149 z "},"E":{"ha":684,"x_min":52,"x_max":632,"o":"m 356 1097 q 574 967 379 1097 l 577 956 q 376 819 577 926 l 370 819 q 138 952 322 838 l 118 956 l 118 960 q 349 1097 318 1097 l 356 1097 m 100 929 q 287 823 134 929 l 290 808 l 290 762 q 208 698 290 737 q 59 606 110 632 l 56 610 l 56 861 q 100 929 56 929 m 359 732 q 587 583 559 616 l 591 572 q 498 504 591 549 q 387 447 410 447 q 311 496 311 463 l 311 656 q 359 732 311 732 m 287 709 l 290 709 l 283 660 l 283 326 q 201 260 283 300 q 94 203 122 203 q 52 253 57 203 l 52 523 q 156 625 52 581 l 287 709 m 439 355 q 632 241 472 355 l 632 230 q 439 86 632 194 q 338 37 371 37 q 111 173 302 49 l 111 177 q 408 348 132 177 l 439 355 z "},"F":{"ha":643,"x_min":52,"x_max":591,"o":"m 356 1097 q 577 967 380 1097 l 577 956 q 456 865 577 926 q 373 819 397 819 q 132 956 360 819 l 121 956 l 121 960 q 338 1097 121 970 l 356 1097 m 104 929 q 277 834 131 929 q 294 808 294 829 l 294 762 q 235 713 294 739 l 62 606 l 59 610 l 59 869 q 104 929 59 929 m 363 732 q 591 580 591 597 l 591 564 q 401 447 591 549 l 391 447 q 315 492 320 460 l 315 660 q 363 732 319 732 m 294 709 l 294 705 l 287 675 l 287 215 q 159 78 287 132 q 87 37 134 54 q 52 165 52 37 l 52 496 q 145 618 52 586 q 294 709 243 684 z "},"G":{"ha":684,"x_min":52,"x_max":632,"o":"m 342 1097 l 346 1097 q 563 971 383 1090 l 570 956 q 435 857 570 926 q 366 819 387 819 q 132 952 348 819 l 111 956 l 111 960 q 342 1097 313 1097 m 94 929 q 280 827 122 929 l 283 808 l 283 326 q 201 260 283 300 q 94 203 122 203 q 52 245 52 211 l 52 884 q 94 929 52 929 m 342 728 q 570 591 363 728 l 570 587 q 342 462 551 587 l 335 462 q 308 519 311 462 l 308 652 q 342 728 315 728 m 591 561 q 629 515 625 561 l 629 295 l 632 253 q 508 127 632 183 q 391 56 497 115 l 391 59 l 397 90 l 397 439 q 487 507 397 465 q 591 561 556 561 m 366 326 l 373 317 l 373 109 q 338 37 373 52 q 111 170 327 37 l 111 177 q 366 326 135 177 z "},"H":{"ha":674,"x_min":52,"x_max":622,"o":"m 252 1093 l 262 1093 q 287 1040 277 1093 l 283 975 l 283 739 q 229 694 283 715 q 73 602 127 627 q 52 640 55 602 l 52 922 q 176 1055 52 1000 q 252 1093 227 1093 m 591 1093 l 601 1093 q 622 1040 622 1084 l 622 591 l 618 587 l 618 583 q 391 728 399 715 l 391 922 q 498 1043 391 1002 q 591 1093 562 1093 m 321 709 q 363 633 363 694 l 363 473 q 308 428 363 443 q 66 572 286 428 l 66 580 l 87 580 q 311 709 109 580 l 321 709 m 384 690 l 387 690 q 615 545 606 568 l 622 511 l 622 211 q 515 90 622 134 q 422 40 447 40 q 391 86 391 40 l 391 656 l 384 690 m 59 542 q 287 397 273 417 l 287 241 q 208 105 287 138 q 83 40 103 40 q 52 97 52 40 l 52 534 l 59 542 z "},"I":{"ha":429,"x_min":52,"x_max":376,"o":"m 80 1080 q 311 943 106 1076 l 311 935 q 80 802 286 935 l 62 802 q 52 833 52 805 l 52 1038 q 80 1076 52 1076 l 80 1080 m 338 909 q 376 833 376 909 l 376 233 q 294 115 376 146 q 170 43 195 50 q 142 88 142 49 l 142 787 q 221 852 142 812 q 338 909 299 909 z "},"J":{"ha":671,"x_min":52,"x_max":618,"o":"m 325 1093 q 556 953 366 1081 l 556 949 q 349 831 527 949 l 315 812 q 294 850 296 812 l 294 1036 q 325 1093 294 1093 m 574 922 q 618 873 618 919 l 618 250 q 553 155 618 178 l 380 49 l 384 87 l 384 801 q 467 865 384 827 q 574 922 544 922 m 252 353 q 359 277 359 308 l 359 140 q 325 37 359 37 q 62 201 282 52 l 52 223 q 208 326 52 248 q 252 353 208 334 z "},"K":{"ha":646,"x_min":52,"x_max":594,"o":"m 256 1094 q 287 1048 282 1094 l 287 915 q 197 839 287 890 q 97 779 137 792 q 56 827 61 779 l 56 923 q 149 1029 56 991 q 256 1094 216 1076 m 525 1025 q 577 892 557 1025 q 587 846 584 892 q 452 729 587 810 q 315 649 359 649 q 97 755 201 694 l 97 760 l 111 760 q 376 930 145 760 q 525 1025 513 1025 m 56 741 q 287 618 264 643 l 287 216 q 180 94 287 141 q 80 41 104 41 q 52 125 52 41 l 52 684 l 56 741 m 325 618 l 335 618 q 404 535 357 618 q 594 243 594 269 q 490 18 517 18 q 356 189 464 20 q 315 269 315 243 l 315 608 l 325 618 z "},"L":{"ha":626,"x_min":52,"x_max":574,"o":"m 77 1097 l 80 1097 q 267 987 111 1097 l 283 937 l 290 318 q 132 212 288 307 l 100 204 q 56 257 60 204 l 52 1036 q 77 1097 52 1078 m 376 314 q 574 189 528 237 l 574 170 q 359 37 538 137 l 349 37 q 118 174 322 37 l 118 177 q 353 310 134 177 l 376 314 z "},"M":{"ha":964,"x_min":52,"x_max":911,"o":"m 608 1097 q 653 1025 647 1097 l 653 838 l 646 831 q 414 964 439 964 l 408 964 q 346 903 346 952 l 346 827 l 335 827 q 115 956 141 956 l 115 960 q 335 1093 310 1093 q 467 1013 345 1093 l 470 1013 q 608 1097 479 1013 m 670 1074 l 677 1074 q 898 930 884 951 q 911 869 906 930 l 911 219 q 863 127 911 149 q 708 44 722 44 q 677 94 683 44 l 677 1044 l 670 1074 m 408 933 q 597 823 435 933 l 601 808 l 601 394 q 518 295 601 324 q 401 231 425 231 q 366 295 366 231 l 366 869 q 408 933 366 933 m 97 930 q 283 823 131 930 l 287 808 l 287 204 q 208 113 287 139 q 90 44 129 57 q 52 117 52 44 l 52 861 q 97 930 52 930 z "},"N":{"ha":684,"x_min":52,"x_max":632,"o":"m 338 1093 q 373 1025 368 1093 l 373 808 l 370 808 l 125 953 l 115 953 l 115 956 q 328 1089 178 1007 l 338 1093 m 391 1070 l 394 1070 q 625 915 625 939 l 632 865 l 632 216 q 584 124 632 144 q 429 41 445 41 q 397 90 403 41 l 397 1036 l 391 1070 m 97 932 q 280 826 132 930 l 283 811 l 283 196 q 156 85 283 142 q 87 47 115 52 q 52 97 60 47 l 52 884 q 97 932 52 932 z "},"O":{"ha":684,"x_min":52,"x_max":632,"o":"m 346 1093 q 570 956 366 1093 l 570 953 q 321 808 546 953 l 311 808 l 311 1029 q 346 1093 315 1093 m 290 1074 l 290 1070 l 287 1036 l 287 322 q 214 265 287 297 q 97 200 124 200 q 52 261 52 200 l 52 873 q 156 991 52 952 q 290 1074 185 1015 m 594 926 q 632 865 630 926 l 632 250 q 522 132 632 176 l 397 52 l 394 52 l 397 90 l 397 804 q 494 877 397 831 q 594 926 557 926 m 373 318 l 373 90 q 338 33 366 33 q 115 170 319 33 l 115 174 q 366 318 132 174 l 373 318 z "},"P":{"ha":684,"x_min":52,"x_max":632,"o":"m 338 1093 q 601 933 369 1093 l 608 922 l 608 907 q 439 770 608 865 l 435 766 l 422 766 q 115 952 138 952 l 115 956 q 338 1093 309 1093 m 100 926 q 283 819 127 926 l 287 804 l 287 223 q 187 101 287 144 q 87 44 116 52 l 83 44 q 52 113 52 44 l 52 857 q 100 926 52 926 m 629 857 l 632 857 l 632 603 q 532 489 632 532 q 315 348 350 364 l 311 352 l 311 557 q 376 682 311 656 q 629 857 603 829 z "},"Q":{"ha":684,"x_min":52,"x_max":632,"o":"m 342 1093 q 373 1036 373 1076 l 373 808 l 363 808 q 115 952 138 952 l 115 956 q 342 1093 315 1093 m 394 1074 l 397 1074 q 625 922 615 945 l 632 873 l 632 283 q 549 189 632 214 q 522 174 549 182 q 397 299 397 273 l 397 1036 l 394 1074 m 97 926 q 287 816 128 926 l 287 90 l 290 52 l 287 52 q 59 204 76 178 l 52 250 l 52 876 q 97 926 56 926 m 321 250 l 376 250 q 477 174 401 250 q 574 67 574 90 q 518 33 574 33 l 356 33 q 311 94 311 43 l 311 238 l 321 250 z "},"R":{"ha":684,"x_min":52,"x_max":632,"o":"m 338 1093 q 601 933 369 1093 l 608 922 l 608 907 q 439 770 608 865 l 435 766 l 422 766 q 115 952 138 952 l 115 956 q 338 1093 309 1093 m 100 926 q 283 819 127 926 l 287 804 l 287 223 q 187 101 287 144 q 87 44 116 52 l 83 44 q 52 113 52 44 l 52 857 q 100 926 52 926 m 629 857 l 632 854 l 632 603 q 546 496 632 534 l 318 340 l 318 337 l 308 337 l 308 584 q 408 701 308 655 q 629 857 610 835 m 498 420 q 612 299 612 346 l 615 250 l 615 98 q 581 37 615 37 q 359 223 549 37 q 325 283 325 249 q 498 420 325 334 z "},"S":{"ha":608,"x_min":52,"x_max":556,"o":"m 335 1093 q 536 975 361 1093 l 539 971 l 539 956 q 249 766 537 941 q 66 899 68 865 l 66 918 q 252 1051 75 944 q 335 1093 313 1093 m 52 857 l 62 857 q 397 648 62 838 q 549 534 549 561 l 556 481 l 556 310 l 553 283 l 549 283 l 77 568 q 52 633 52 591 l 52 857 m 349 367 q 532 234 532 267 l 532 227 l 536 227 q 373 101 536 192 q 262 41 289 41 q 62 162 233 41 l 59 177 q 349 367 102 218 z "},"T":{"ha":840,"x_min":52,"x_max":787,"o":"m 559 1085 l 563 1085 q 781 949 595 1085 l 787 930 q 587 804 787 908 q 532 846 532 817 l 532 1009 q 559 1085 532 1072 m 325 1074 q 380 1036 354 1074 l 267 960 q 249 922 249 938 l 249 831 l 239 819 l 229 819 q 111 933 161 819 q 52 1040 52 1025 l 52 1051 q 104 1070 60 1070 l 107 1070 l 325 1074 m 505 1074 l 511 1074 l 505 1028 l 505 219 q 356 90 505 163 q 297 60 316 60 q 273 101 277 60 l 273 880 q 366 987 273 949 l 505 1074 z "},"U":{"ha":684,"x_min":52,"x_max":632,"o":"m 256 1093 q 287 1032 287 1093 l 287 101 l 290 63 l 287 63 q 62 212 79 185 q 52 264 52 237 l 52 926 q 132 1025 52 998 q 256 1093 234 1093 m 597 1093 q 632 1032 629 1093 l 632 257 q 587 208 632 208 q 397 318 553 210 l 397 918 q 446 1009 397 989 q 597 1093 583 1093 m 311 326 l 315 326 l 559 181 l 570 181 l 570 177 q 349 41 475 107 l 342 41 q 311 109 311 53 l 311 326 z "},"V":{"ha":684,"x_min":52,"x_max":632,"o":"m 94 1093 q 283 964 283 992 l 287 929 l 287 329 q 191 257 287 303 q 90 208 128 208 q 52 269 54 208 l 52 1028 q 94 1093 52 1093 m 601 1093 q 632 1032 632 1093 l 632 261 q 543 155 632 187 q 391 63 407 63 l 397 86 l 397 926 q 477 1025 397 998 q 601 1093 578 1093 m 363 326 l 373 326 l 373 105 q 338 41 369 41 q 115 177 318 41 l 115 181 q 363 326 138 181 z "},"W":{"ha":964,"x_min":52,"x_max":911,"o":"m 94 1093 q 287 956 287 994 l 287 329 q 204 264 287 302 q 97 208 127 208 q 52 276 52 208 l 52 1017 q 94 1093 52 1093 m 881 1093 q 911 1017 911 1093 l 911 269 q 815 151 911 185 q 670 63 684 63 l 677 94 l 677 933 q 753 1025 677 997 q 881 1093 858 1093 m 408 907 q 601 770 601 810 l 601 329 q 511 261 601 304 q 408 203 451 215 q 366 269 366 203 l 366 842 q 408 907 366 907 m 346 310 l 346 234 q 408 174 346 184 l 414 174 q 650 307 433 174 l 653 302 l 653 113 q 612 44 649 44 l 608 44 q 473 127 595 44 l 467 127 q 335 44 350 44 q 115 177 309 47 l 115 181 q 338 310 135 181 l 346 310 z "},"X":{"ha":767,"x_min":52,"x_max":715,"o":"m 632 1116 q 663 1044 658 1116 l 663 979 l 667 827 q 559 660 667 748 l 404 481 q 394 466 399 466 l 391 466 l 391 785 q 460 937 391 888 q 632 1116 612 1116 m 121 1093 q 300 907 134 1093 q 363 812 363 852 q 252 656 363 753 l 208 610 q 80 808 80 737 l 80 1025 q 121 1093 83 1093 m 370 736 l 373 736 l 373 401 q 283 245 373 313 q 87 63 101 63 q 56 132 56 76 l 56 174 l 52 356 q 176 534 52 433 q 370 736 359 709 m 556 591 l 559 591 q 711 401 711 450 l 715 359 l 715 136 q 691 71 715 86 q 432 329 680 71 q 401 386 401 359 q 536 568 401 452 l 556 591 z "},"Y":{"ha":674,"x_min":52,"x_max":622,"o":"m 83 1093 q 283 933 283 996 l 283 591 q 229 542 283 567 q 90 470 123 470 q 52 515 56 470 l 52 1051 q 83 1093 52 1093 m 591 1093 q 622 1047 622 1086 l 622 234 q 518 132 622 177 l 387 48 l 384 48 l 391 82 l 391 918 q 449 1013 391 988 l 591 1093 m 366 584 l 366 318 q 338 302 366 307 q 115 435 321 302 l 115 443 q 359 584 161 461 l 366 584 m 145 215 l 356 215 l 366 203 l 366 117 q 325 41 362 41 l 318 41 q 115 177 298 41 l 111 193 q 145 215 111 212 z "},"Z":{"ha":705,"x_min":52,"x_max":653,"o":"m 232 1063 l 429 1063 q 470 1013 470 1063 q 370 857 470 971 q 335 815 362 833 l 125 812 l 104 812 q 69 834 69 814 q 197 1059 167 1059 l 232 1063 m 498 1002 l 501 1002 q 629 766 629 795 q 515 603 629 736 q 187 165 205 203 q 176 127 183 127 q 52 363 52 338 l 52 375 q 384 819 52 419 q 498 1002 498 966 m 625 326 q 653 302 647 320 q 522 79 559 79 l 494 75 l 256 75 q 211 127 211 75 q 304 276 211 165 q 353 321 334 321 l 501 321 l 625 326 z "},"a":{"ha":673,"x_min":37,"x_max":621,"o":"m 328 739 q 562 599 369 730 l 562 595 l 548 595 q 244 412 533 595 l 231 412 q 51 549 51 515 l 51 557 q 227 682 51 586 q 328 739 288 728 m 576 572 q 621 496 621 572 l 621 120 q 586 47 621 47 q 389 203 389 144 l 386 253 l 386 450 q 441 496 386 475 q 576 572 549 572 m 47 500 q 310 329 77 467 q 361 279 361 303 l 361 101 q 331 44 361 44 q 58 203 304 44 q 37 260 44 221 l 41 390 l 41 492 l 47 500 z "},"b":{"ha":669,"x_min":52,"x_max":632,"o":"m 252 1059 q 283 1013 279 1059 l 283 325 q 173 241 283 298 q 97 203 123 203 q 52 253 52 203 l 52 880 q 132 986 52 956 q 252 1059 207 1039 m 353 728 q 615 568 369 728 q 632 507 632 543 l 632 272 l 629 272 q 311 477 601 301 l 308 488 l 311 656 l 311 663 q 353 728 311 708 m 435 363 q 618 222 618 262 l 618 215 q 435 85 618 187 q 342 37 368 37 q 115 170 319 37 l 115 177 q 387 336 137 177 l 435 363 z "},"c":{"ha":666,"x_min":52,"x_max":629,"o":"m 353 735 q 581 583 581 604 l 584 572 q 429 469 584 553 q 384 450 407 450 q 308 500 308 469 l 308 652 q 353 735 308 718 m 287 713 l 290 713 l 290 709 l 283 686 l 283 333 q 201 268 283 306 q 87 211 129 211 q 52 257 56 211 l 52 519 q 149 625 52 587 l 287 713 m 429 371 q 629 238 629 261 q 404 75 628 200 q 335 44 366 44 q 111 180 300 54 l 111 184 q 429 371 137 184 z "},"d":{"ha":669,"x_min":37,"x_max":617,"o":"m 417 1059 q 617 903 617 958 l 617 249 q 572 203 617 203 q 389 310 537 207 l 386 325 l 386 998 q 417 1059 386 1059 m 313 728 q 361 644 355 728 l 361 492 q 290 435 361 469 q 47 276 77 304 l 47 272 l 37 272 l 37 504 q 141 621 37 581 l 313 728 m 237 363 q 559 177 536 177 l 559 173 q 328 37 355 37 q 62 192 303 37 q 51 222 51 208 q 237 363 51 262 z "},"e":{"ha":669,"x_min":52,"x_max":632,"o":"m 342 735 q 615 572 374 735 l 632 545 q 429 401 632 517 l 401 382 l 394 382 l 397 405 q 294 492 397 439 q 115 595 136 595 l 115 602 q 342 735 319 729 m 97 568 q 287 458 127 568 l 287 97 l 290 71 q 56 234 56 196 l 52 291 l 52 454 q 87 568 52 568 l 97 568 m 318 443 q 366 393 366 418 q 318 340 366 368 l 311 348 l 311 435 l 318 443 m 321 222 l 518 222 q 566 203 566 220 l 566 189 q 359 44 543 155 q 311 123 311 44 l 311 211 l 321 222 z "},"f":{"ha":553,"x_min":52,"x_max":515,"o":"m 356 1055 q 515 903 515 930 q 467 876 515 876 l 318 876 l 308 887 l 308 979 q 356 1055 308 1055 m 283 1043 l 287 1043 l 283 1005 l 283 766 q 232 739 283 758 q 56 629 229 732 l 52 633 l 52 849 q 145 956 52 918 l 283 1043 m 294 732 q 505 606 328 732 l 505 595 q 249 431 500 583 q 62 576 62 536 q 221 694 62 608 q 294 732 269 732 m 59 523 q 287 374 90 488 q 315 317 315 346 l 315 85 q 287 44 312 44 q 62 180 250 44 l 52 222 l 52 515 l 59 523 z "},"g":{"ha":669,"x_min":37,"x_max":617,"o":"m 328 735 q 562 595 350 735 q 279 431 533 595 l 234 409 q 51 549 51 505 l 51 553 q 199 663 51 585 q 328 735 292 728 m 576 568 q 617 519 612 568 l 617 -9 q 534 -111 617 -81 q 379 -206 491 -144 l 379 -203 l 386 -172 l 386 447 q 469 511 386 473 q 576 568 547 568 m 44 500 q 255 359 47 479 q 361 283 360 296 l 361 215 q 328 47 361 47 l 313 44 q 44 222 44 195 q 37 264 37 237 l 37 492 l 44 500 m 144 -39 l 351 -39 l 361 -51 l 361 -138 q 313 -218 361 -218 q 106 -73 133 -108 l 106 -58 q 144 -39 106 -45 z "},"h":{"ha":684,"x_min":52,"x_max":632,"o":"m 83 1059 q 277 918 277 956 l 283 872 l 283 758 q 211 701 283 734 q 94 637 130 642 q 52 686 57 637 l 52 1013 q 83 1059 52 1059 m 338 739 q 574 599 366 739 l 574 595 l 566 595 q 262 416 542 595 l 249 412 l 242 412 q 62 553 62 514 q 224 675 62 586 q 338 739 307 730 m 587 572 q 632 507 632 572 l 632 104 q 601 47 632 47 q 418 158 580 47 q 401 219 401 186 l 401 450 q 484 515 401 477 q 587 572 557 569 m 52 500 l 62 500 q 262 367 64 481 q 290 295 290 340 l 290 97 q 262 37 287 37 q 62 170 186 59 q 52 208 52 189 l 52 500 z "},"i":{"ha":339,"x_min":52,"x_max":287,"o":"m 83 1059 q 283 914 283 964 l 283 906 q 87 766 283 861 l 80 766 q 52 827 52 775 l 52 994 q 83 1059 52 1059 m 256 735 q 287 667 287 735 l 287 109 q 252 47 287 47 q 56 196 56 139 l 52 253 l 52 530 q 83 640 52 616 q 256 735 243 735 z "},"j":{"ha":427,"x_min":-136,"x_max":375,"o":"m 175 1059 q 375 914 375 962 l 375 910 q 172 766 375 858 q 144 811 144 772 l 144 1013 q 175 1059 149 1059 m 348 735 q 375 694 372 735 l 375 -13 q 286 -115 375 -81 q 140 -206 282 -123 l 144 -168 l 144 561 q 251 682 144 644 q 348 735 327 735 m -87 -39 l 109 -39 l 120 -51 l 120 -142 q 71 -218 120 -218 q -136 -73 -92 -118 l -136 -70 q -87 -39 -136 -39 z "},"k":{"ha":694,"x_min":52,"x_max":656,"o":"m 83 1059 q 283 903 283 958 l 283 709 q 208 648 283 684 q 97 587 135 597 q 52 640 56 587 l 52 1002 q 83 1059 52 1059 m 384 709 q 622 561 622 601 q 411 416 622 532 q 376 401 411 406 q 135 542 353 401 l 115 545 l 115 549 q 384 709 354 709 m 97 519 q 283 412 128 519 l 283 75 q 249 33 283 33 q 56 170 56 142 l 52 208 l 52 454 q 97 519 52 519 m 318 393 l 653 189 l 656 184 l 656 173 q 515 66 656 140 q 460 40 505 51 q 315 120 432 40 l 311 135 l 311 359 l 308 374 q 318 393 312 393 z "},"l":{"ha":336,"x_min":52,"x_max":283,"o":"m 80 1059 q 270 941 184 1012 q 283 880 283 909 l 283 170 q 197 101 283 142 q 90 47 126 47 q 52 97 52 47 l 52 1013 q 80 1059 52 1050 z "},"m":{"ha":922,"x_min":52,"x_max":870,"o":"m 338 739 q 532 629 361 739 l 549 599 q 359 454 549 551 q 121 595 161 580 l 107 595 l 107 599 q 338 739 320 739 m 429 735 l 566 735 q 618 659 618 735 l 618 602 l 608 591 l 594 591 q 566 637 572 591 q 446 716 552 663 l 429 732 l 429 735 m 635 720 l 639 720 q 863 572 846 599 l 870 526 l 870 222 q 749 94 870 145 q 667 47 690 47 q 639 104 639 47 l 639 682 l 635 720 m 94 572 q 283 462 128 570 l 283 238 q 180 104 283 142 q 77 47 102 47 q 52 90 57 47 l 52 523 q 94 572 52 572 m 563 549 l 574 549 l 574 283 q 518 177 574 207 q 384 101 424 101 q 359 158 361 101 l 359 359 q 456 469 359 433 q 563 545 544 522 l 563 549 z "},"n":{"ha":669,"x_min":52,"x_max":632,"o":"m 342 739 q 612 576 380 733 l 618 553 q 432 412 618 506 l 125 595 l 111 595 l 111 599 q 328 735 127 618 l 342 739 m 94 572 q 283 462 125 572 l 283 227 q 194 113 283 148 q 80 47 100 47 q 52 101 52 47 l 52 523 q 94 572 58 572 m 629 504 l 632 500 l 632 222 q 543 109 632 153 q 422 37 463 42 q 394 90 394 37 l 394 310 q 536 435 394 369 q 629 504 608 478 z "},"o":{"ha":654,"x_min":37,"x_max":617,"o":"m 328 735 q 593 580 353 735 q 604 549 604 564 q 417 409 604 508 q 96 599 130 587 l 96 602 q 328 735 307 735 m 82 568 q 265 462 113 568 l 269 447 l 269 104 l 272 66 q 44 222 44 197 q 37 260 38 222 l 37 519 q 82 568 37 568 m 614 500 l 617 500 l 617 264 q 513 151 617 191 q 341 44 477 121 q 293 151 293 44 l 293 276 q 366 336 293 303 q 614 500 583 469 z "},"p":{"ha":669,"x_min":52,"x_max":632,"o":"m 342 735 q 612 576 369 735 l 618 549 q 432 409 618 509 q 111 595 134 595 l 111 599 q 342 735 315 735 m 97 568 q 280 462 127 568 l 283 447 l 283 -210 q 249 -271 283 -271 q 52 -115 52 -170 l 52 523 q 97 568 52 568 m 622 500 l 632 500 l 632 268 q 522 146 632 192 q 356 44 488 120 q 308 127 315 44 l 308 279 q 380 336 308 303 q 622 496 593 467 l 622 500 z "},"q":{"ha":669,"x_min":37,"x_max":617,"o":"m 331 735 q 555 599 374 722 l 555 595 q 275 431 531 595 q 231 409 241 409 q 54 538 54 510 l 51 549 l 51 564 q 290 720 60 588 q 331 735 302 735 m 579 568 q 617 504 617 568 l 617 -210 q 583 -271 617 -271 q 386 -115 386 -170 l 386 450 q 427 488 386 472 q 579 568 541 568 m 37 496 l 47 496 q 252 363 48 479 q 358 287 355 298 l 358 120 q 317 47 358 47 l 310 47 q 54 203 292 47 q 37 260 37 225 l 37 496 z "},"r":{"ha":593,"x_min":52,"x_max":563,"o":"m 342 739 q 553 614 373 739 l 563 591 q 380 458 563 553 l 376 458 q 132 595 352 458 l 115 599 l 115 602 q 335 739 115 614 l 342 739 m 97 572 q 280 469 121 572 l 283 450 l 283 227 q 194 113 283 149 q 80 47 98 47 q 52 104 52 47 l 52 523 q 97 572 56 572 z "},"s":{"ha":530,"x_min":37,"x_max":493,"o":"m 93 716 l 300 716 q 369 690 358 716 l 369 682 q 199 553 369 644 q 41 443 65 468 l 37 443 l 37 637 q 93 716 37 716 m 231 534 l 234 534 q 476 371 476 402 l 476 367 q 279 230 476 341 q 55 378 55 360 l 52 393 q 231 534 52 432 m 483 333 l 493 333 l 493 123 q 427 63 493 63 l 272 63 q 165 90 165 63 l 165 109 q 369 253 183 142 q 483 333 483 317 z "},"t":{"ha":554,"x_min":52,"x_max":532,"o":"m 83 964 q 283 815 283 875 l 283 735 q 214 682 283 712 q 56 587 75 589 l 52 587 l 52 906 q 83 964 52 964 m 349 713 q 525 621 380 713 l 532 599 l 532 591 q 328 462 490 544 l 321 462 q 135 568 283 476 l 117 572 l 111 572 l 111 576 q 349 713 317 713 m 97 549 q 280 443 123 549 l 283 428 l 283 90 q 252 47 282 47 q 59 180 59 157 q 52 222 52 195 l 52 481 q 97 549 52 549 z "},"u":{"ha":669,"x_min":37,"x_max":617,"o":"m 248 739 q 276 671 274 739 l 276 481 q 162 359 276 404 q 41 276 57 293 l 37 279 l 37 561 q 121 663 37 623 q 248 739 213 739 m 590 728 q 617 667 617 719 l 617 272 q 572 203 617 203 q 386 310 549 203 l 382 348 l 382 439 q 417 629 382 629 q 590 728 567 728 m 227 363 l 235 363 l 390 272 q 552 180 528 180 l 559 180 l 559 177 q 328 37 372 51 q 127 151 309 37 q 48 219 48 196 q 224 359 48 264 l 227 363 z "},"v":{"ha":684,"x_min":52,"x_max":632,"o":"m 605 739 q 632 682 632 739 l 632 276 l 622 276 q 432 401 619 294 q 394 477 394 428 l 394 557 q 484 667 394 623 q 605 739 559 732 m 87 728 q 277 599 265 633 l 283 553 l 283 325 q 208 264 283 300 q 97 203 136 213 q 52 264 52 203 l 52 682 q 87 728 52 728 m 435 363 q 618 222 618 268 l 618 219 q 501 127 618 189 q 342 40 373 40 q 111 177 310 40 l 111 180 l 118 180 q 422 359 140 180 l 435 363 z "},"w":{"ha":926,"x_min":52,"x_max":874,"o":"m 83 743 q 283 587 283 643 l 283 325 q 90 219 132 219 q 52 283 52 219 l 52 682 q 83 743 52 743 m 843 743 q 874 686 874 743 l 874 268 q 784 158 874 191 l 640 66 l 635 66 l 643 101 l 643 568 q 746 686 643 643 q 843 743 797 723 m 391 690 q 564 576 430 690 l 574 534 l 574 390 l 577 238 l 574 238 q 384 363 557 262 q 363 416 363 392 l 363 644 q 391 690 363 684 m 366 336 q 549 196 549 233 l 549 192 q 460 116 549 156 q 339 52 373 52 q 115 189 304 60 l 115 192 q 366 336 136 192 m 608 196 l 618 184 l 618 120 q 553 52 618 52 l 429 52 l 429 56 q 556 135 431 63 l 584 196 l 608 196 z "},"x":{"ha":640,"x_min":52,"x_max":587,"o":"m 508 716 q 539 656 539 716 l 539 553 l 543 519 q 435 393 543 452 l 325 302 l 321 302 l 321 534 q 404 648 321 606 q 508 716 488 716 m 90 713 q 287 572 106 713 l 290 553 l 290 549 q 173 431 290 502 q 132 405 148 405 q 66 530 66 442 l 66 640 q 90 713 66 700 m 300 496 l 304 492 l 304 264 q 232 158 304 193 q 87 59 100 59 q 52 165 52 59 l 52 260 q 145 374 52 326 q 300 496 273 464 m 484 390 q 587 268 587 343 l 587 101 q 570 63 587 71 l 563 63 q 338 222 549 63 l 332 249 q 484 390 332 289 z "},"y":{"ha":677,"x_min":52,"x_max":625,"o":"m 83 739 q 283 583 283 639 l 283 336 q 197 268 283 309 q 90 215 127 215 q 52 276 54 215 l 52 682 q 83 739 52 739 m 594 735 q 625 675 625 735 l 625 -1 q 525 -119 625 -81 q 387 -202 401 -202 l 391 -183 l 391 530 q 425 644 391 620 q 594 735 578 735 m 366 333 l 370 329 l 370 63 q 342 47 370 52 q 115 184 317 47 l 115 189 q 366 333 147 195 m 149 -39 l 359 -39 l 370 -50 l 370 -73 q 325 -217 370 -217 q 118 -81 307 -217 l 111 -65 q 149 -39 111 -43 z "},"z":{"ha":534,"x_min":37,"x_max":496,"o":"m 227 716 l 431 716 q 493 652 493 716 l 496 652 l 493 595 l 493 454 l 486 447 q 237 610 474 469 q 165 682 165 652 l 165 690 q 227 716 178 716 m 300 534 q 479 397 479 435 l 483 393 l 483 390 q 303 260 483 359 l 255 230 q 58 363 94 318 l 58 378 q 300 534 104 429 m 41 333 l 44 333 l 351 132 q 369 97 369 112 l 369 90 q 252 63 369 63 l 106 63 q 37 146 37 63 l 37 276 l 41 333 z "},"$":{"ha":542,"x_min":67,"x_max":475,"o":"m 243 960 q 309 914 304 927 l 309 899 q 233 846 302 879 l 229 849 l 229 925 q 243 960 229 950 m 302 842 q 461 739 414 785 q 275 610 461 722 q 226 583 239 583 q 78 694 78 661 q 226 804 78 722 q 302 842 270 842 m 67 652 l 78 652 q 237 549 94 627 q 465 401 448 427 q 475 344 475 376 l 471 196 l 257 321 q 74 443 81 419 q 67 485 67 458 l 67 652 m 302 256 q 457 146 457 182 q 298 28 457 115 q 240 -5 274 4 q 78 94 218 -5 l 74 109 l 302 256 m 309 -9 l 313 -9 l 313 -85 q 295 -119 313 -119 q 229 -69 248 -96 q 309 -9 229 -41 z "}}}
